<?xml version="1.0" encoding="utf-8"?>
<!-- Generator: Adobe Illustrator 19.1.0, SVG Export Plug-In . SVG Version: 6.00 Build 0)  -->
<svg version="1.1" id="Layer_1" xmlns="http://www.w3.org/2000/svg" xmlns:xlink="http://www.w3.org/1999/xlink" x="0px" y="0px"
	 viewBox="0 0 16 16" style="enable-background:new 0 0 16 16;" xml:space="preserve">
<style type="text/css">
	.st0{fill:#FFFFFF;}
</style>
<path class="st0" d="M8,0C6.5,0,5.1,0.4,3.9,1.1C3.6,0.8,3.1,0.6,2.6,0.6c-1.1,0-2,0.9-2,2c0,0.5,0.2,1,0.5,1.3C0.4,5.1,0,6.5,0,8
	c0,4.4,3.6,8,8,8s8-3.6,8-8S12.4,0,8,0z M8,15.2C4,15.2,0.8,12,0.8,8c0-1.3,0.4-2.5,1-3.6C2,4.5,2.3,4.6,2.6,4.6c1.1,0,2-0.9,2-2
	c0-0.3-0.1-0.6-0.2-0.9c1.1-0.6,2.3-1,3.6-1c4,0,7.2,3.2,7.2,7.2S12,15.2,8,15.2z"/>
</svg>
