<?xml version="1.0" encoding="utf-8"?>
<!-- Generator: Adobe Illustrator 19.1.0, SVG Export Plug-In . SVG Version: 6.00 Build 0)  -->
<svg version="1.1" xmlns="http://www.w3.org/2000/svg" xmlns:xlink="http://www.w3.org/1999/xlink" x="0px" y="0px"
	 viewBox="0 0 512 512" style="enable-background:new 0 0 512 512;" xml:space="preserve">
<style type="text/css">
	.st0{enable-background:new    ;}
	.st1{fill-rule:evenodd;clip-rule:evenodd;}
</style>
<g id="Shape_1_1_" class="st0">
	<g id="Shape_1">
		<g>
			<path class="st1" d="M256,36c-48.7,0-93.7,15.8-130.1,42.6c-4.3-3.2-9.7-5.1-15.5-5.1c-14.5,0-26.2,11.7-26.2,26.2
				c0,5.2,1.5,10,4.1,14C55.7,152.1,36,201.7,36,256c0,121.5,98.5,220,220,220s220-98.5,220-220S377.5,36,256,36z M256,464.6
				c-115.2,0-208.6-93.4-208.6-208.6c0-51.1,18.4-97.9,48.9-134.2c4.1,2.6,8.9,4.1,14,4.1c14.5,0,26.2-11.7,26.2-26.2
				c0-4.5-1.1-8.8-3.2-12.5c34.4-25.1,76.8-39.8,122.6-39.8c115.2,0,208.6,93.4,208.6,208.6C464.6,371.2,371.2,464.6,256,464.6z
				 M253.6,75.5h-6.3c-1.4,0-2.6,1.2-2.6,2.6v31.4c0,1.4-1.2,2.6-2.6,2.6h-15c-1.4,0-2.6-1.2-2.6-2.6V78.1c0-1.4-1.2-2.6-2.6-2.6
				h-6.3c-1.4,0-2.6,1.2-2.6,2.6v31.4c0,1.4-1.2,2.6-2.6,2.6h-15c-1.4,0-2.6-1.2-2.6-2.6V78.1c0-1.4-1.2-2.6-2.6-2.6h-6.3
				c-1.4,0-2.6,1.2-2.6,2.6v43c0,1.4,1.2,2.6,2.6,2.6h70c1.4,0,2.6-1.2,2.6-2.6v-43C256.2,76.7,255,75.5,253.6,75.5z M140.9,160.1
				h-60c-1.4,0-2.6,1.2-2.6,2.6v6.3c0,1.4,1.2,2.6,2.6,2.6h8.7c1.4,0,2.6,1.2,2.6,2.6v67.8c0,1.4-1.2,2.6-2.6,2.6h-8.7
				c-1.4,0-2.6,1.2-2.6,2.6v6.3c0,1.4,1.2,2.6,2.6,2.6h60c1.4,0,2.6-1.2,2.6-2.6v-6.3c0-1.4-1.2-2.6-2.6-2.6h-8.7
				c-1.4,0-2.6-1.2-2.6-2.6v-67.8c0-1.4,1.2-2.6,2.6-2.6h8.7c1.4,0,2.6-1.2,2.6-2.6v-6.3C143.5,161.2,142.3,160.1,140.9,160.1z
				 M117.9,242.1c0,1.4-1.2,2.6-2.6,2.6h-8.8c-1.4,0-2.6-1.2-2.6-2.6v-67.8c0-1.4,1.2-2.6,2.6-2.6h8.8c1.4,0,2.6,1.2,2.6,2.6V242.1z
				 M253.6,185.5H227c-1.4,0-2.6-1.2-2.6-2.6v-8.6c0-1.4,1.2-2.6,2.6-2.6h26.5c1.4,0,2.6-1.2,2.6-2.6v-6.3c0-1.4-1.2-2.6-2.6-2.6
				h-69.9c-1.4,0-2.6,1.2-2.6,2.6v6.3c0,1.4,1.2,2.6,2.6,2.6h26.5c1.4,0,2.6,1.2,2.6,2.6v8.6c0,1.4-1.2,2.6-2.6,2.6h-26.6
				c-1.4,0-2.6,1.2-2.6,2.6v65.1c0,1.4,1.2,2.6,2.6,2.6h6.3c1.4,0,2.6-1.2,2.6-2.6v-53.5c0-1.4,1.2-2.6,2.6-2.6h4.4
				c1.4,0,2.6,1.2,2.6,2.6v53.5c0,1.4,1.2,2.6,2.6,2.6h6.3c1.4,0,2.6-1.2,2.6-2.6v-53.5c0-1.4,1.2-2.6,2.6-2.6h4.4
				c1.4,0,2.6,1.2,2.6,2.6v53.5c0,1.4,1.2,2.6,2.6,2.6h6.3c1.4,0,2.6-1.2,2.6-2.6v-53.5c0-1.4,1.2-2.6,2.6-2.6h4.4
				c1.4,0,2.6,1.2,2.6,2.6v53.5c0,1.4,1.2,2.6,2.6,2.6h6.3c1.4,0,2.6-1.2,2.6-2.6v-65.1C256.2,186.7,255,185.5,253.6,185.5z"/>
		</g>
	</g>
</g>
<g id="Layer_2">
</g>
</svg>
